<svg xmlns="http://www.w3.org/2000/svg" width="28" height="28" viewBox="0 0 28 28" fill="none">
<path d="M15.114 25.719C13.756 24.3214 12.9974 22.4487 13 20.5C13 18.812 13.558 17.253 14.5 16H5C4.20435 16 3.44129 16.3161 2.87868 16.8787C2.31607 17.4413 2 18.2044 2 19V19.715C2 23.433 6.21 26 12 26C13.0445 26.0033 14.087 25.9092 15.114 25.719ZM18 8C18 6.4087 17.3679 4.88258 16.2426 3.75736C15.1174 2.63214 13.5913 2 12 2C10.4087 2 8.88258 2.63214 7.75736 3.75736C6.63214 4.88258 6 6.4087 6 8C6 9.5913 6.63214 11.1174 7.75736 12.2426C8.88258 13.3679 10.4087 14 12 14C13.5913 14 15.1174 13.3679 16.2426 12.2426C17.3679 11.1174 18 9.5913 18 8ZM20.5 27C22.2239 27 23.8772 26.3152 25.0962 25.0962C26.3152 23.8772 27 22.2239 27 20.5C27 18.7761 26.3152 17.1228 25.0962 15.9038C23.8772 14.6848 22.2239 14 20.5 14C18.7761 14 17.1228 14.6848 15.9038 15.9038C14.6848 17.1228 14 18.7761 14 20.5C14 22.2239 14.6848 23.8772 15.9038 25.0962C17.1228 26.3152 18.7761 27 20.5 27ZM20.5 16C20.6326 16 20.7598 16.0527 20.8536 16.1464C20.9473 16.2402 21 16.3674 21 16.5V20H24.5C24.6326 20 24.7598 20.0527 24.8536 20.1464C24.9473 20.2402 25 20.3674 25 20.5C25 20.6326 24.9473 20.7598 24.8536 20.8536C24.7598 20.9473 24.6326 21 24.5 21H21V24.5C21 24.6326 20.9473 24.7598 20.8536 24.8536C20.7598 24.9473 20.6326 25 20.5 25C20.3674 25 20.2402 24.9473 20.1464 24.8536C20.0527 24.7598 20 24.6326 20 24.5V21H16.5C16.3674 21 16.2402 20.9473 16.1464 20.8536C16.0527 20.7598 16 20.6326 16 20.5C16 20.3674 16.0527 20.2402 16.1464 20.1464C16.2402 20.0527 16.3674 20 16.5 20H20V16.5C20 16.3674 20.0527 16.2402 20.1464 16.1464C20.2402 16.0527 20.3674 16 20.5 16Z" fill="#D2990D"/>
</svg>